<svg xmlns="http://www.w3.org/2000/svg" xmlns:xlink="http://www.w3.org/1999/xlink" width="64" zoomAndPan="magnify" viewBox="0 0 48 48" height="64" preserveAspectRatio="xMidYMid meet" version="1.0"><defs><g/><clipPath id="136df3bb17"><path d="M 6.617188 2.203125 L 40.28125 2.203125 L 40.28125 21.136719 L 6.617188 21.136719 Z M 6.617188 2.203125 " clip-rule="nonzero"/></clipPath><clipPath id="039405a0f6"><path d="M 14.597656 23.511719 L 33.699219 23.511719 L 33.699219 42.613281 L 14.597656 42.613281 Z M 14.597656 23.511719 " clip-rule="nonzero"/></clipPath></defs><g clip-path="url(#136df3bb17)"><path fill="#617cb9" d="M 36.386719 2.503906 C 36.566406 4.398438 38.0625 5.894531 39.957031 6.074219 L 39.957031 6.660156 C 39.652344 6.78125 39.4375 7.078125 39.4375 7.425781 C 39.4375 7.769531 39.652344 8.066406 39.957031 8.1875 L 39.957031 8.734375 C 39.652344 8.851562 39.4375 9.148438 39.4375 9.496094 C 39.4375 9.839844 39.652344 10.136719 39.957031 10.257812 L 39.957031 10.804688 C 39.652344 10.925781 39.4375 11.21875 39.4375 11.566406 C 39.4375 11.910156 39.652344 12.207031 39.957031 12.328125 L 39.957031 12.875 C 39.652344 12.996094 39.4375 13.292969 39.4375 13.636719 C 39.4375 13.980469 39.652344 14.277344 39.957031 14.398438 L 39.957031 14.945312 C 39.652344 15.066406 39.4375 15.363281 39.4375 15.707031 C 39.4375 16.054688 39.652344 16.347656 39.957031 16.46875 L 39.957031 17.054688 C 38.054688 17.242188 36.527344 18.796875 36.378906 20.703125 L 10.59375 20.703125 C 10.445312 18.753906 8.886719 17.195312 6.9375 17.046875 L 6.9375 16.496094 C 7.28125 16.398438 7.535156 16.082031 7.535156 15.707031 C 7.535156 15.332031 7.28125 15.015625 6.9375 14.917969 L 6.9375 14.425781 C 7.28125 14.328125 7.535156 14.011719 7.535156 13.636719 C 7.535156 13.261719 7.28125 12.945312 6.9375 12.847656 L 6.9375 12.355469 C 7.28125 12.257812 7.535156 11.941406 7.535156 11.566406 C 7.535156 11.191406 7.28125 10.875 6.9375 10.777344 L 6.9375 10.285156 C 7.28125 10.1875 7.535156 9.871094 7.535156 9.496094 C 7.535156 9.121094 7.28125 8.804688 6.9375 8.707031 L 6.9375 8.214844 C 7.28125 8.117188 7.535156 7.800781 7.535156 7.425781 C 7.535156 7.050781 7.28125 6.734375 6.9375 6.636719 L 6.9375 6.082031 C 8.847656 5.9375 10.402344 4.410156 10.585938 2.503906 L 36.386719 2.503906 M 36.671875 2.203125 L 10.300781 2.203125 C 10.261719 4.183594 8.628906 5.792969 6.636719 5.792969 L 6.636719 6.914062 C 6.664062 6.910156 6.6875 6.90625 6.714844 6.90625 C 7 6.90625 7.234375 7.136719 7.234375 7.425781 C 7.234375 7.710938 7 7.941406 6.714844 7.941406 C 6.6875 7.941406 6.664062 7.9375 6.636719 7.933594 L 6.636719 8.984375 C 6.664062 8.980469 6.6875 8.976562 6.714844 8.976562 C 7 8.976562 7.234375 9.210938 7.234375 9.496094 C 7.234375 9.78125 7 10.011719 6.714844 10.011719 C 6.6875 10.011719 6.664062 10.007812 6.636719 10.003906 L 6.636719 11.054688 C 6.664062 11.050781 6.6875 11.046875 6.714844 11.046875 C 7 11.046875 7.234375 11.28125 7.234375 11.566406 C 7.234375 11.851562 7 12.085938 6.714844 12.085938 C 6.6875 12.085938 6.664062 12.082031 6.636719 12.078125 L 6.636719 13.128906 C 6.664062 13.125 6.6875 13.121094 6.714844 13.121094 C 7 13.121094 7.234375 13.351562 7.234375 13.636719 C 7.234375 13.921875 7 14.15625 6.714844 14.15625 C 6.6875 14.15625 6.664062 14.152344 6.636719 14.148438 L 6.636719 15.199219 C 6.664062 15.195312 6.6875 15.191406 6.714844 15.191406 C 7 15.191406 7.234375 15.421875 7.234375 15.707031 C 7.234375 15.996094 7 16.226562 6.714844 16.226562 C 6.6875 16.226562 6.664062 16.222656 6.636719 16.21875 L 6.636719 17.339844 C 8.652344 17.339844 10.304688 18.988281 10.304688 21.003906 C 10.304688 21.003906 36.671875 21.003906 36.671875 21.003906 C 36.671875 19.015625 38.277344 17.382812 40.257812 17.339844 L 40.257812 16.226562 C 39.972656 16.226562 39.742188 15.996094 39.742188 15.707031 C 39.742188 15.421875 39.972656 15.191406 40.257812 15.191406 L 40.257812 14.15625 C 39.972656 14.15625 39.742188 13.921875 39.742188 13.636719 C 39.742188 13.351562 39.972656 13.121094 40.257812 13.121094 L 40.257812 12.085938 C 39.972656 12.085938 39.742188 11.851562 39.742188 11.566406 C 39.742188 11.28125 39.972656 11.046875 40.257812 11.046875 L 40.257812 10.011719 C 39.972656 10.011719 39.742188 9.78125 39.742188 9.496094 C 39.742188 9.210938 39.972656 8.976562 40.257812 8.976562 L 40.257812 7.941406 C 39.972656 7.941406 39.742188 7.710938 39.742188 7.425781 C 39.742188 7.136719 39.972656 6.90625 40.257812 6.90625 L 40.257812 5.792969 C 38.304688 5.75 36.714844 4.160156 36.671875 2.203125 Z M 36.671875 2.203125 " fill-opacity="1" fill-rule="nonzero"/></g><path fill="#617cb9" d="M 35.285156 3.882812 C 35.816406 5.421875 37.039062 6.644531 38.578125 7.175781 L 38.578125 15.960938 C 37.019531 16.511719 35.792969 17.757812 35.265625 19.324219 L 11.710938 19.324219 C 11.179688 17.722656 9.921875 16.460938 8.316406 15.929688 L 8.316406 7.199219 C 9.882812 6.671875 11.132812 5.441406 11.683594 3.882812 L 35.285156 3.882812 M 35.371094 3.761719 L 11.597656 3.761719 C 11.066406 5.347656 9.789062 6.605469 8.195312 7.113281 L 8.195312 16.015625 C 9.828125 16.527344 11.113281 17.816406 11.625 19.445312 L 35.351562 19.445312 C 35.859375 17.851562 37.113281 16.574219 38.699219 16.046875 L 38.699219 7.089844 C 37.125 6.574219 35.886719 5.335938 35.371094 3.761719 Z M 35.371094 3.761719 " fill-opacity="1" fill-rule="nonzero"/><g fill="#617cb9" fill-opacity="1"><g transform="translate(12.758648, 13.275272)"><g><path d="M 3.734375 -6.71875 C 4.109375 -6.71875 4.453125 -6.671875 4.765625 -6.578125 C 5.085938 -6.492188 5.410156 -6.351562 5.734375 -6.15625 L 5.96875 -6.34375 C 6.125 -6.476562 6.253906 -6.566406 6.359375 -6.609375 C 6.460938 -6.660156 6.582031 -6.6875 6.71875 -6.6875 C 6.875 -6.6875 7 -6.648438 7.09375 -6.578125 C 7.1875 -6.503906 7.234375 -6.398438 7.234375 -6.265625 C 7.234375 -6.210938 7.222656 -6.15625 7.203125 -6.09375 L 6.796875 -4.71875 C 6.742188 -4.5625 6.679688 -4.445312 6.609375 -4.375 C 6.546875 -4.3125 6.441406 -4.28125 6.296875 -4.28125 C 6.148438 -4.28125 6.019531 -4.320312 5.90625 -4.40625 C 5.800781 -4.5 5.632812 -4.6875 5.40625 -4.96875 C 5.164062 -5.238281 4.953125 -5.425781 4.765625 -5.53125 C 4.578125 -5.644531 4.382812 -5.703125 4.1875 -5.703125 C 4.03125 -5.703125 3.898438 -5.648438 3.796875 -5.546875 C 3.703125 -5.453125 3.65625 -5.335938 3.65625 -5.203125 C 3.65625 -5.035156 3.734375 -4.882812 3.890625 -4.75 C 4.054688 -4.613281 4.3125 -4.441406 4.65625 -4.234375 C 5 -4.035156 5.28125 -3.851562 5.5 -3.6875 C 5.726562 -3.519531 5.921875 -3.3125 6.078125 -3.0625 C 6.242188 -2.8125 6.328125 -2.523438 6.328125 -2.203125 C 6.328125 -2.003906 6.296875 -1.800781 6.234375 -1.59375 C 6.066406 -1.0625 5.753906 -0.65625 5.296875 -0.375 C 4.835938 -0.09375 4.300781 0.046875 3.6875 0.046875 C 3.226562 0.046875 2.84375 -0.00390625 2.53125 -0.109375 C 2.21875 -0.222656 1.894531 -0.40625 1.5625 -0.65625 L 1.203125 -0.359375 C 1.035156 -0.222656 0.898438 -0.128906 0.796875 -0.078125 C 0.691406 -0.0234375 0.570312 0 0.4375 0 C 0.28125 0 0.15625 -0.0351562 0.0625 -0.109375 C -0.0195312 -0.179688 -0.0625 -0.28125 -0.0625 -0.40625 C -0.0625 -0.476562 -0.046875 -0.550781 -0.015625 -0.625 L 0.46875 -2.109375 C 0.519531 -2.285156 0.59375 -2.410156 0.6875 -2.484375 C 0.78125 -2.554688 0.898438 -2.59375 1.046875 -2.59375 C 1.203125 -2.59375 1.34375 -2.535156 1.46875 -2.421875 C 1.59375 -2.316406 1.753906 -2.125 1.953125 -1.84375 C 2.160156 -1.539062 2.351562 -1.328125 2.53125 -1.203125 C 2.71875 -1.085938 2.941406 -1.03125 3.203125 -1.03125 C 3.378906 -1.03125 3.515625 -1.054688 3.609375 -1.109375 C 3.710938 -1.171875 3.78125 -1.265625 3.8125 -1.390625 C 3.832031 -1.421875 3.84375 -1.472656 3.84375 -1.546875 C 3.84375 -1.703125 3.765625 -1.847656 3.609375 -1.984375 C 3.453125 -2.117188 3.21875 -2.273438 2.90625 -2.453125 C 2.5625 -2.660156 2.28125 -2.847656 2.0625 -3.015625 C 1.851562 -3.179688 1.671875 -3.382812 1.515625 -3.625 C 1.359375 -3.875 1.28125 -4.164062 1.28125 -4.5 C 1.28125 -4.726562 1.316406 -4.957031 1.390625 -5.1875 C 1.523438 -5.644531 1.8125 -6.015625 2.25 -6.296875 C 2.6875 -6.578125 3.179688 -6.71875 3.734375 -6.71875 Z M 3.734375 -6.71875 "/></g></g></g><g fill="#617cb9" fill-opacity="1"><g transform="translate(19.650513, 13.275272)"><g><path d="M 8.015625 -6.65625 C 8.378906 -6.65625 8.5625 -6.503906 8.5625 -6.203125 C 8.5625 -6.109375 8.539062 -5.992188 8.5 -5.859375 L 8.265625 -5.046875 C 8.191406 -4.804688 8.097656 -4.632812 7.984375 -4.53125 C 7.878906 -4.425781 7.726562 -4.375 7.53125 -4.375 C 7.363281 -4.375 7.234375 -4.414062 7.140625 -4.5 C 7.054688 -4.59375 6.972656 -4.734375 6.890625 -4.921875 L 6.71875 -5.328125 C 6.664062 -5.453125 6.609375 -5.535156 6.546875 -5.578125 C 6.484375 -5.628906 6.390625 -5.65625 6.265625 -5.65625 L 6.046875 -5.65625 L 4.765625 -1.1875 C 4.742188 -1.101562 4.734375 -1.023438 4.734375 -0.953125 C 4.734375 -0.878906 4.742188 -0.816406 4.765625 -0.765625 C 4.796875 -0.710938 4.832031 -0.65625 4.875 -0.59375 C 4.9375 -0.5 4.96875 -0.421875 4.96875 -0.359375 C 4.96875 -0.347656 4.960938 -0.316406 4.953125 -0.265625 C 4.921875 -0.171875 4.851562 -0.101562 4.75 -0.0625 C 4.65625 -0.03125 4.519531 -0.015625 4.34375 -0.015625 L 1.984375 -0.015625 C 1.847656 -0.015625 1.738281 -0.0351562 1.65625 -0.078125 C 1.582031 -0.128906 1.546875 -0.195312 1.546875 -0.28125 C 1.546875 -0.320312 1.554688 -0.363281 1.578125 -0.40625 C 1.609375 -0.457031 1.640625 -0.5 1.671875 -0.53125 C 1.710938 -0.5625 1.769531 -0.601562 1.84375 -0.65625 C 1.9375 -0.707031 2.015625 -0.769531 2.078125 -0.84375 C 2.148438 -0.914062 2.210938 -1.03125 2.265625 -1.1875 L 3.515625 -5.65625 L 3.296875 -5.65625 C 3.140625 -5.65625 3.015625 -5.628906 2.921875 -5.578125 C 2.835938 -5.535156 2.738281 -5.453125 2.625 -5.328125 L 2.296875 -4.921875 C 2.140625 -4.742188 1.988281 -4.609375 1.84375 -4.515625 C 1.707031 -4.421875 1.554688 -4.375 1.390625 -4.375 C 1.234375 -4.375 1.113281 -4.414062 1.03125 -4.5 C 0.945312 -4.582031 0.90625 -4.691406 0.90625 -4.828125 C 0.90625 -4.898438 0.914062 -4.972656 0.9375 -5.046875 L 1.1875 -5.953125 C 1.238281 -6.140625 1.296875 -6.28125 1.359375 -6.375 C 1.429688 -6.476562 1.53125 -6.550781 1.65625 -6.59375 C 1.78125 -6.632812 1.957031 -6.65625 2.1875 -6.65625 Z M 8.015625 -6.65625 "/></g></g></g><g fill="#617cb9" fill-opacity="1"><g transform="translate(27.242571, 13.275272)"><g><path d="M 3.734375 -6.71875 C 4.109375 -6.71875 4.453125 -6.671875 4.765625 -6.578125 C 5.085938 -6.492188 5.410156 -6.351562 5.734375 -6.15625 L 5.96875 -6.34375 C 6.125 -6.476562 6.253906 -6.566406 6.359375 -6.609375 C 6.460938 -6.660156 6.582031 -6.6875 6.71875 -6.6875 C 6.875 -6.6875 7 -6.648438 7.09375 -6.578125 C 7.1875 -6.503906 7.234375 -6.398438 7.234375 -6.265625 C 7.234375 -6.210938 7.222656 -6.15625 7.203125 -6.09375 L 6.796875 -4.71875 C 6.742188 -4.5625 6.679688 -4.445312 6.609375 -4.375 C 6.546875 -4.3125 6.441406 -4.28125 6.296875 -4.28125 C 6.148438 -4.28125 6.019531 -4.320312 5.90625 -4.40625 C 5.800781 -4.5 5.632812 -4.6875 5.40625 -4.96875 C 5.164062 -5.238281 4.953125 -5.425781 4.765625 -5.53125 C 4.578125 -5.644531 4.382812 -5.703125 4.1875 -5.703125 C 4.03125 -5.703125 3.898438 -5.648438 3.796875 -5.546875 C 3.703125 -5.453125 3.65625 -5.335938 3.65625 -5.203125 C 3.65625 -5.035156 3.734375 -4.882812 3.890625 -4.75 C 4.054688 -4.613281 4.3125 -4.441406 4.65625 -4.234375 C 5 -4.035156 5.28125 -3.851562 5.5 -3.6875 C 5.726562 -3.519531 5.921875 -3.3125 6.078125 -3.0625 C 6.242188 -2.8125 6.328125 -2.523438 6.328125 -2.203125 C 6.328125 -2.003906 6.296875 -1.800781 6.234375 -1.59375 C 6.066406 -1.0625 5.753906 -0.65625 5.296875 -0.375 C 4.835938 -0.09375 4.300781 0.046875 3.6875 0.046875 C 3.226562 0.046875 2.84375 -0.00390625 2.53125 -0.109375 C 2.21875 -0.222656 1.894531 -0.40625 1.5625 -0.65625 L 1.203125 -0.359375 C 1.035156 -0.222656 0.898438 -0.128906 0.796875 -0.078125 C 0.691406 -0.0234375 0.570312 0 0.4375 0 C 0.28125 0 0.15625 -0.0351562 0.0625 -0.109375 C -0.0195312 -0.179688 -0.0625 -0.28125 -0.0625 -0.40625 C -0.0625 -0.476562 -0.046875 -0.550781 -0.015625 -0.625 L 0.46875 -2.109375 C 0.519531 -2.285156 0.59375 -2.410156 0.6875 -2.484375 C 0.78125 -2.554688 0.898438 -2.59375 1.046875 -2.59375 C 1.203125 -2.59375 1.34375 -2.535156 1.46875 -2.421875 C 1.59375 -2.316406 1.753906 -2.125 1.953125 -1.84375 C 2.160156 -1.539062 2.351562 -1.328125 2.53125 -1.203125 C 2.71875 -1.085938 2.941406 -1.03125 3.203125 -1.03125 C 3.378906 -1.03125 3.515625 -1.054688 3.609375 -1.109375 C 3.710938 -1.171875 3.78125 -1.265625 3.8125 -1.390625 C 3.832031 -1.421875 3.84375 -1.472656 3.84375 -1.546875 C 3.84375 -1.703125 3.765625 -1.847656 3.609375 -1.984375 C 3.453125 -2.117188 3.21875 -2.273438 2.90625 -2.453125 C 2.5625 -2.660156 2.28125 -2.847656 2.0625 -3.015625 C 1.851562 -3.179688 1.671875 -3.382812 1.515625 -3.625 C 1.359375 -3.875 1.28125 -4.164062 1.28125 -4.5 C 1.28125 -4.726562 1.316406 -4.957031 1.390625 -5.1875 C 1.523438 -5.644531 1.8125 -6.015625 2.25 -6.296875 C 2.6875 -6.578125 3.179688 -6.71875 3.734375 -6.71875 Z M 3.734375 -6.71875 "/></g></g></g><g clip-path="url(#039405a0f6)"><path fill="#617cb9" d="M 23.40625 23.53125 C 23.210938 23.527344 23.042969 23.671875 23.007812 23.863281 L 22.785156 25.078125 C 22.59375 25.140625 22.410156 25.214844 22.230469 25.304688 L 21.230469 24.582031 C 21.070312 24.46875 20.847656 24.484375 20.710938 24.625 L 19.839844 25.480469 C 19.703125 25.617188 19.679688 25.835938 19.792969 26 L 20.496094 27.015625 C 20.402344 27.195312 20.324219 27.378906 20.261719 27.566406 L 19.046875 27.761719 C 18.851562 27.792969 18.707031 27.960938 18.707031 28.160156 L 18.699219 29.378906 C 18.695312 29.578125 18.835938 29.746094 19.03125 29.78125 L 20.25 30.003906 C 20.3125 30.191406 20.386719 30.375 20.476562 30.554688 L 19.75 31.554688 C 19.636719 31.714844 19.652344 31.9375 19.789062 32.078125 L 20.648438 32.945312 C 20.785156 33.085938 21.003906 33.105469 21.167969 32.992188 L 22.195312 32.285156 C 22.371094 32.375 22.554688 32.449219 22.742188 32.511719 L 22.949219 33.742188 C 22.984375 33.9375 23.152344 34.082031 23.347656 34.082031 L 24.566406 34.089844 C 24.765625 34.089844 24.9375 33.945312 24.96875 33.75 L 25.175781 32.523438 C 25.363281 32.460938 25.542969 32.390625 25.71875 32.300781 L 26.738281 33.023438 C 26.902344 33.140625 27.121094 33.121094 27.257812 32.984375 L 28.128906 32.128906 C 28.269531 31.988281 28.289062 31.765625 28.171875 31.601562 L 27.449219 30.585938 C 27.539062 30.410156 27.613281 30.230469 27.675781 30.046875 L 28.914062 29.839844 C 29.105469 29.804688 29.25 29.636719 29.25 29.4375 L 29.257812 28.222656 C 29.257812 28.023438 29.117188 27.855469 28.917969 27.820312 L 27.695312 27.613281 C 27.632812 27.425781 27.558594 27.242188 27.472656 27.0625 L 28.191406 26.046875 C 28.308594 25.886719 28.289062 25.667969 28.152344 25.527344 L 27.292969 24.660156 C 27.15625 24.519531 26.933594 24.5 26.769531 24.617188 L 25.765625 25.328125 C 25.585938 25.238281 25.40625 25.164062 25.222656 25.101562 L 25.023438 23.878906 C 24.992188 23.683594 24.824219 23.539062 24.625 23.535156 Z M 23.746094 24.34375 L 24.277344 24.347656 L 24.453125 25.445312 C 24.480469 25.605469 24.597656 25.734375 24.753906 25.773438 C 25.050781 25.851562 25.339844 25.972656 25.609375 26.136719 C 25.746094 26.222656 25.921875 26.214844 26.054688 26.121094 L 26.960938 25.480469 L 27.335938 25.855469 L 26.683594 26.769531 C 26.589844 26.902344 26.582031 27.074219 26.664062 27.210938 C 26.824219 27.484375 26.941406 27.773438 27.011719 28.070312 C 27.050781 28.226562 27.179688 28.347656 27.339844 28.378906 L 28.441406 28.5625 L 28.441406 29.09375 L 27.328125 29.28125 C 27.167969 29.308594 27.039062 29.425781 27 29.582031 C 26.925781 29.878906 26.804688 30.164062 26.644531 30.429688 C 26.558594 30.570312 26.566406 30.746094 26.660156 30.878906 L 27.308594 31.792969 L 26.933594 32.164062 L 26.011719 31.511719 C 25.878906 31.417969 25.707031 31.410156 25.570312 31.496094 C 25.300781 31.65625 25.011719 31.769531 24.714844 31.839844 C 24.558594 31.878906 24.4375 32.007812 24.410156 32.167969 L 24.226562 33.277344 L 23.695312 33.269531 L 23.507812 32.160156 C 23.480469 32.003906 23.363281 31.875 23.203125 31.835938 C 22.910156 31.761719 22.621094 31.640625 22.351562 31.480469 C 22.214844 31.398438 22.042969 31.402344 21.910156 31.496094 L 20.984375 32.132812 L 20.609375 31.753906 L 21.261719 30.851562 C 21.359375 30.71875 21.367188 30.542969 21.28125 30.40625 C 21.121094 30.132812 21.003906 29.84375 20.929688 29.546875 C 20.894531 29.390625 20.769531 29.273438 20.609375 29.242188 L 19.511719 29.042969 L 19.515625 28.511719 L 20.609375 28.335938 C 20.769531 28.308594 20.898438 28.191406 20.9375 28.03125 C 21.015625 27.734375 21.132812 27.445312 21.300781 27.175781 C 21.382812 27.039062 21.378906 26.863281 21.285156 26.730469 L 20.65625 25.816406 L 21.035156 25.445312 L 21.933594 26.089844 C 22.0625 26.1875 22.238281 26.195312 22.375 26.113281 C 22.648438 25.949219 22.941406 25.835938 23.238281 25.761719 C 23.398438 25.722656 23.515625 25.597656 23.542969 25.441406 Z M 23.972656 26.792969 C 23.449219 26.789062 22.925781 26.984375 22.527344 27.378906 C 21.734375 28.167969 21.726562 29.464844 22.511719 30.261719 C 23.300781 31.058594 24.597656 31.0625 25.394531 30.277344 C 26.191406 29.492188 26.195312 28.191406 25.410156 27.398438 C 25.015625 27 24.496094 26.796875 23.972656 26.792969 Z M 23.96875 27.601562 C 24.28125 27.601562 24.59375 27.726562 24.832031 27.96875 C 25.3125 28.453125 25.308594 29.222656 24.824219 29.699219 C 24.339844 30.175781 23.570312 30.175781 23.089844 29.691406 C 22.613281 29.207031 22.617188 28.4375 23.101562 27.957031 C 23.34375 27.71875 23.65625 27.601562 23.96875 27.601562 Z M 19.679688 34.089844 C 18.621094 34.089844 18.132812 34.34375 17.605469 34.546875 C 16.597656 34.941406 14.867188 35.757812 14.867188 35.757812 C 14.664062 35.851562 14.578125 36.09375 14.671875 36.296875 C 14.769531 36.5 15.011719 36.589844 15.214844 36.492188 C 15.214844 36.492188 16.953125 35.671875 17.898438 35.304688 C 18.484375 35.078125 18.738281 34.902344 19.679688 34.902344 C 21.765625 34.902344 21.679688 35.804688 22.558594 36.324219 C 22.570312 36.332031 22.585938 36.339844 22.601562 36.34375 C 23.691406 36.832031 24.859375 36.933594 25.804688 36.933594 C 26.222656 36.933594 26.484375 37.03125 26.628906 37.136719 C 26.769531 37.246094 26.820312 37.359375 26.820312 37.542969 C 26.820312 37.757812 26.765625 37.859375 26.625 37.960938 C 26.484375 38.0625 26.214844 38.152344 25.804688 38.152344 L 23.671875 38.152344 C 22.777344 38.152344 21.238281 37.757812 21.238281 37.757812 C 21.097656 37.71875 20.949219 37.761719 20.84375 37.863281 C 20.742188 37.96875 20.703125 38.117188 20.738281 38.257812 C 20.777344 38.398438 20.890625 38.507812 21.03125 38.542969 C 21.03125 38.542969 22.558594 38.964844 23.671875 38.964844 L 25.804688 38.964844 C 26.21875 38.964844 26.578125 38.894531 26.878906 38.746094 C 26.921875 38.734375 26.957031 38.71875 26.992188 38.695312 L 30.84375 36.167969 C 31.421875 35.832031 31.816406 35.738281 32.050781 35.742188 C 32.28125 35.746094 32.359375 35.816406 32.429688 35.90625 C 32.53125 36.039062 32.539062 36.089844 32.472656 36.242188 C 32.40625 36.398438 32.207031 36.636719 31.847656 36.886719 C 31.40625 37.191406 26.472656 40.40625 25.90625 40.730469 C 25.476562 40.976562 25.132812 41.230469 24.746094 41.339844 C 24.355469 41.449219 23.898438 41.449219 23.140625 41.085938 C 22.632812 40.84375 20.480469 39.742188 19.78125 39.386719 C 19.394531 39.191406 19.0625 39.078125 18.722656 39.097656 C 18.382812 39.117188 18.097656 39.261719 17.800781 39.449219 C 17.796875 39.449219 17.796875 39.449219 17.796875 39.453125 L 16.789062 40.09375 C 16.664062 40.171875 16.589844 40.308594 16.59375 40.457031 C 16.597656 40.605469 16.683594 40.738281 16.816406 40.804688 C 16.949219 40.871094 17.105469 40.863281 17.230469 40.777344 L 18.230469 40.136719 C 18.488281 39.976562 18.632812 39.917969 18.769531 39.910156 C 18.902344 39.902344 19.082031 39.945312 19.414062 40.113281 C 20.105469 40.460938 22.226562 41.550781 22.789062 41.820312 C 23.675781 42.242188 24.390625 42.28125 24.960938 42.125 C 25.535156 41.964844 25.941406 41.644531 26.304688 41.4375 C 27.089844 40.992188 31.746094 37.945312 32.3125 37.550781 C 32.742188 37.25 33.058594 36.9375 33.21875 36.566406 C 33.378906 36.191406 33.328125 35.734375 33.070312 35.40625 C 32.871094 35.148438 32.511719 34.9375 32.0625 34.929688 C 31.808594 34.925781 31.523438 34.984375 31.207031 35.097656 C 31.148438 35.019531 31.0625 34.917969 30.9375 34.832031 C 30.703125 34.65625 30.328125 34.496094 29.816406 34.496094 C 29.554688 34.496094 29.339844 34.554688 29.167969 34.628906 C 28.925781 34.394531 28.492188 34.097656 27.859375 34.097656 C 27.351562 34.097656 26.871094 34.269531 26.539062 34.464844 C 26.476562 34.503906 26.328125 34.597656 26.074219 34.753906 C 25.820312 34.914062 25.488281 35.117188 25.160156 35.324219 C 24.640625 35.648438 24.316406 35.851562 24.128906 35.96875 C 23.730469 35.890625 23.332031 35.777344 22.957031 35.609375 C 22.636719 35.40625 22.019531 34.089844 19.679688 34.089844 Z M 27.859375 34.910156 C 28.117188 34.910156 28.300781 34.976562 28.433594 35.050781 L 26.554688 36.214844 C 26.328125 36.152344 26.078125 36.121094 25.804688 36.121094 C 25.6875 36.121094 25.558594 36.113281 25.4375 36.109375 C 25.511719 36.058594 25.511719 36.058594 25.589844 36.011719 C 25.917969 35.808594 26.246094 35.601562 26.503906 35.441406 C 26.757812 35.285156 26.964844 35.15625 26.949219 35.164062 C 27.140625 35.050781 27.558594 34.910156 27.859375 34.910156 Z M 29.816406 35.308594 C 30.144531 35.308594 30.324219 35.390625 30.429688 35.464844 C 30.425781 35.46875 30.417969 35.472656 30.414062 35.476562 L 27.605469 37.316406 C 27.570312 37.089844 27.476562 36.875 27.328125 36.691406 L 29.289062 35.476562 L 29.289062 35.472656 C 29.304688 35.464844 29.644531 35.308594 29.816406 35.308594 Z M 29.816406 35.308594 " fill-opacity="1" fill-rule="nonzero"/></g></svg>