<svg xmlns="http://www.w3.org/2000/svg" xmlns:xlink="http://www.w3.org/1999/xlink" width="64" zoomAndPan="magnify" viewBox="0 0 48 48" height="64" preserveAspectRatio="xMidYMid meet" version="1.0"><defs><g/><clipPath id="e89d755d65"><path d="M 1.296875 0.808594 L 46.703125 0.808594 L 46.703125 46.210938 L 1.296875 46.210938 Z M 1.296875 0.808594 " clip-rule="nonzero"/></clipPath><clipPath id="0df00c4dc3"><path d="M 24 0.808594 C 11.460938 0.808594 1.296875 10.972656 1.296875 23.511719 C 1.296875 36.046875 11.460938 46.210938 24 46.210938 C 36.539062 46.210938 46.703125 36.046875 46.703125 23.511719 C 46.703125 10.972656 36.539062 0.808594 24 0.808594 Z M 24 0.808594 " clip-rule="nonzero"/></clipPath><clipPath id="acd6b7d763"><path d="M 7.804688 5.414062 L 40.195312 5.414062 L 40.195312 23.632812 L 7.804688 23.632812 Z M 7.804688 5.414062 " clip-rule="nonzero"/></clipPath><clipPath id="f557001a2c"><path d="M 14.597656 25.492188 L 33.699219 25.492188 L 33.699219 44.597656 L 14.597656 44.597656 Z M 14.597656 25.492188 " clip-rule="nonzero"/></clipPath></defs><g clip-path="url(#e89d755d65)"><g clip-path="url(#0df00c4dc3)"><path fill="#ffffff" d="M 1.296875 0.808594 L 46.703125 0.808594 L 46.703125 46.210938 L 1.296875 46.210938 Z M 1.296875 0.808594 " fill-opacity="1" fill-rule="nonzero"/></g></g><g clip-path="url(#acd6b7d763)"><path fill="#617cb9" d="M 36.449219 5.703125 C 36.621094 7.523438 38.0625 8.964844 39.882812 9.136719 L 39.882812 9.703125 C 39.59375 9.816406 39.386719 10.101562 39.386719 10.433594 C 39.386719 10.765625 39.59375 11.050781 39.882812 11.167969 L 39.882812 11.695312 C 39.59375 11.808594 39.386719 12.09375 39.386719 12.425781 C 39.386719 12.761719 39.59375 13.046875 39.882812 13.160156 L 39.882812 13.6875 C 39.59375 13.804688 39.386719 14.089844 39.386719 14.421875 C 39.386719 14.753906 39.59375 15.039062 39.882812 15.152344 L 39.882812 15.679688 C 39.59375 15.796875 39.386719 16.082031 39.386719 16.414062 C 39.386719 16.746094 39.59375 17.03125 39.882812 17.144531 L 39.882812 17.671875 C 39.59375 17.789062 39.386719 18.074219 39.386719 18.40625 C 39.386719 18.738281 39.59375 19.023438 39.882812 19.140625 L 39.882812 19.703125 C 38.050781 19.882812 36.585938 21.378906 36.441406 23.210938 L 11.628906 23.210938 C 11.488281 21.339844 9.988281 19.835938 8.113281 19.695312 L 8.113281 19.164062 C 8.445312 19.070312 8.6875 18.765625 8.6875 18.40625 C 8.6875 18.046875 8.445312 17.742188 8.113281 17.648438 L 8.113281 17.171875 C 8.445312 17.078125 8.6875 16.773438 8.6875 16.414062 C 8.6875 16.054688 8.445312 15.75 8.113281 15.65625 L 8.113281 15.179688 C 8.445312 15.085938 8.6875 14.78125 8.6875 14.421875 C 8.6875 14.0625 8.445312 13.757812 8.113281 13.664062 L 8.113281 13.1875 C 8.445312 13.09375 8.6875 12.789062 8.6875 12.429688 C 8.6875 12.066406 8.445312 11.761719 8.113281 11.667969 L 8.113281 11.195312 C 8.445312 11.101562 8.6875 10.796875 8.6875 10.4375 C 8.6875 10.074219 8.445312 9.769531 8.113281 9.675781 L 8.113281 9.144531 C 9.949219 9.003906 11.445312 7.535156 11.621094 5.703125 L 36.449219 5.703125 M 36.722656 5.410156 L 11.347656 5.410156 C 11.308594 7.320312 9.738281 8.867188 7.824219 8.867188 L 7.824219 9.945312 C 7.847656 9.941406 7.871094 9.9375 7.898438 9.9375 C 8.171875 9.9375 8.394531 10.160156 8.394531 10.4375 C 8.394531 10.710938 8.171875 10.933594 7.898438 10.933594 C 7.871094 10.933594 7.847656 10.929688 7.824219 10.925781 L 7.824219 11.9375 C 7.847656 11.933594 7.871094 11.929688 7.898438 11.929688 C 8.171875 11.929688 8.394531 12.152344 8.394531 12.429688 C 8.394531 12.703125 8.171875 12.925781 7.898438 12.925781 C 7.871094 12.925781 7.847656 12.921875 7.824219 12.917969 L 7.824219 13.929688 C 7.847656 13.925781 7.871094 13.921875 7.898438 13.921875 C 8.171875 13.921875 8.394531 14.144531 8.394531 14.421875 C 8.394531 14.695312 8.171875 14.917969 7.898438 14.917969 C 7.871094 14.917969 7.847656 14.914062 7.824219 14.910156 L 7.824219 15.921875 C 7.847656 15.917969 7.871094 15.914062 7.898438 15.914062 C 8.171875 15.914062 8.394531 16.136719 8.394531 16.414062 C 8.394531 16.6875 8.171875 16.910156 7.898438 16.910156 C 7.871094 16.910156 7.847656 16.90625 7.824219 16.90625 L 7.824219 17.914062 C 7.847656 17.914062 7.871094 17.910156 7.898438 17.910156 C 8.171875 17.910156 8.394531 18.132812 8.394531 18.40625 C 8.394531 18.679688 8.171875 18.90625 7.898438 18.90625 C 7.871094 18.90625 7.847656 18.902344 7.824219 18.898438 L 7.824219 19.976562 C 9.761719 19.976562 11.351562 21.5625 11.351562 23.503906 C 11.351562 23.503906 36.722656 23.503906 36.722656 23.503906 C 36.722656 21.589844 38.269531 20.019531 40.175781 19.976562 L 40.175781 18.90625 C 39.898438 18.90625 39.675781 18.679688 39.675781 18.40625 C 39.675781 18.132812 39.898438 17.910156 40.175781 17.910156 L 40.175781 16.910156 C 39.898438 16.910156 39.675781 16.6875 39.675781 16.414062 C 39.675781 16.136719 39.898438 15.914062 40.175781 15.914062 L 40.175781 14.917969 C 39.898438 14.917969 39.675781 14.695312 39.675781 14.421875 C 39.675781 14.144531 39.898438 13.921875 40.175781 13.921875 L 40.175781 12.925781 C 39.898438 12.925781 39.675781 12.703125 39.675781 12.429688 C 39.675781 12.152344 39.898438 11.929688 40.175781 11.929688 L 40.175781 10.933594 C 39.898438 10.933594 39.675781 10.710938 39.675781 10.4375 C 39.675781 10.160156 39.898438 9.9375 40.175781 9.9375 L 40.175781 8.863281 C 38.292969 8.824219 36.761719 7.292969 36.722656 5.410156 Z M 36.722656 5.410156 " fill-opacity="1" fill-rule="nonzero"/></g><path fill="#617cb9" d="M 35.390625 7.027344 C 35.902344 8.507812 37.078125 9.683594 38.558594 10.199219 L 38.558594 18.648438 C 37.058594 19.179688 35.875 20.378906 35.371094 21.886719 L 12.707031 21.886719 C 12.195312 20.34375 10.984375 19.128906 9.4375 18.617188 L 9.4375 10.21875 C 10.945312 9.710938 12.148438 8.527344 12.675781 7.027344 L 35.390625 7.027344 M 35.472656 6.914062 L 12.59375 6.914062 C 12.085938 8.4375 10.855469 9.648438 9.324219 10.132812 L 9.324219 18.703125 C 10.890625 19.195312 12.132812 20.433594 12.625 22 L 35.453125 22 C 35.941406 20.46875 37.148438 19.242188 38.675781 18.730469 L 38.675781 10.113281 C 37.160156 9.617188 35.96875 8.425781 35.472656 6.914062 Z M 35.472656 6.914062 " fill-opacity="1" fill-rule="nonzero"/><g fill="#617cb9" fill-opacity="1"><g transform="translate(13.713403, 16.065425)"><g><path d="M 3.59375 -6.46875 C 3.957031 -6.46875 4.289062 -6.421875 4.59375 -6.328125 C 4.894531 -6.242188 5.207031 -6.109375 5.53125 -5.921875 L 5.75 -6.109375 C 5.90625 -6.234375 6.03125 -6.316406 6.125 -6.359375 C 6.226562 -6.398438 6.34375 -6.421875 6.46875 -6.421875 C 6.625 -6.421875 6.742188 -6.390625 6.828125 -6.328125 C 6.921875 -6.265625 6.96875 -6.164062 6.96875 -6.03125 C 6.96875 -5.976562 6.957031 -5.925781 6.9375 -5.875 L 6.53125 -4.546875 C 6.488281 -4.390625 6.429688 -4.28125 6.359375 -4.21875 C 6.296875 -4.15625 6.195312 -4.125 6.0625 -4.125 C 5.925781 -4.125 5.800781 -4.164062 5.6875 -4.25 C 5.582031 -4.332031 5.421875 -4.507812 5.203125 -4.78125 C 4.972656 -5.039062 4.765625 -5.222656 4.578125 -5.328125 C 4.398438 -5.429688 4.210938 -5.484375 4.015625 -5.484375 C 3.878906 -5.484375 3.757812 -5.4375 3.65625 -5.34375 C 3.5625 -5.25 3.515625 -5.132812 3.515625 -5 C 3.515625 -4.851562 3.59375 -4.710938 3.75 -4.578125 C 3.90625 -4.441406 4.144531 -4.273438 4.46875 -4.078125 C 4.800781 -3.878906 5.078125 -3.695312 5.296875 -3.53125 C 5.515625 -3.375 5.703125 -3.175781 5.859375 -2.9375 C 6.015625 -2.707031 6.09375 -2.4375 6.09375 -2.125 C 6.09375 -1.925781 6.0625 -1.726562 6 -1.53125 C 5.84375 -1.019531 5.539062 -0.628906 5.09375 -0.359375 C 4.65625 -0.0976562 4.140625 0.03125 3.546875 0.03125 C 3.109375 0.03125 2.738281 -0.015625 2.4375 -0.109375 C 2.132812 -0.210938 1.828125 -0.390625 1.515625 -0.640625 L 1.171875 -0.34375 C 1.003906 -0.207031 0.867188 -0.113281 0.765625 -0.0625 C 0.660156 -0.0195312 0.546875 0 0.421875 0 C 0.273438 0 0.15625 -0.0351562 0.0625 -0.109375 C -0.0195312 -0.179688 -0.0625 -0.273438 -0.0625 -0.390625 C -0.0625 -0.453125 -0.046875 -0.519531 -0.015625 -0.59375 L 0.453125 -2.03125 C 0.503906 -2.195312 0.570312 -2.316406 0.65625 -2.390625 C 0.75 -2.460938 0.867188 -2.5 1.015625 -2.5 C 1.160156 -2.5 1.289062 -2.445312 1.40625 -2.34375 C 1.53125 -2.238281 1.6875 -2.050781 1.875 -1.78125 C 2.082031 -1.488281 2.273438 -1.28125 2.453125 -1.15625 C 2.628906 -1.039062 2.835938 -0.984375 3.078125 -0.984375 C 3.253906 -0.984375 3.390625 -1.007812 3.484375 -1.0625 C 3.578125 -1.125 3.640625 -1.21875 3.671875 -1.34375 C 3.691406 -1.375 3.703125 -1.421875 3.703125 -1.484375 C 3.703125 -1.640625 3.625 -1.78125 3.46875 -1.90625 C 3.320312 -2.03125 3.097656 -2.1875 2.796875 -2.375 C 2.460938 -2.570312 2.191406 -2.75 1.984375 -2.90625 C 1.785156 -3.0625 1.609375 -3.253906 1.453125 -3.484375 C 1.304688 -3.722656 1.234375 -4.003906 1.234375 -4.328125 C 1.234375 -4.554688 1.269531 -4.78125 1.34375 -5 C 1.476562 -5.4375 1.753906 -5.789062 2.171875 -6.0625 C 2.585938 -6.332031 3.0625 -6.46875 3.59375 -6.46875 Z M 3.59375 -6.46875 "/></g></g></g><g fill="#617cb9" fill-opacity="1"><g transform="translate(20.34499, 16.065425)"><g><path d="M 7.703125 -6.40625 C 8.054688 -6.40625 8.234375 -6.265625 8.234375 -5.984375 C 8.234375 -5.890625 8.21875 -5.773438 8.1875 -5.640625 L 7.953125 -4.859375 C 7.878906 -4.617188 7.789062 -4.453125 7.6875 -4.359375 C 7.582031 -4.265625 7.4375 -4.21875 7.25 -4.21875 C 7.082031 -4.21875 6.957031 -4.257812 6.875 -4.34375 C 6.789062 -4.425781 6.707031 -4.554688 6.625 -4.734375 L 6.46875 -5.125 C 6.414062 -5.25 6.359375 -5.332031 6.296875 -5.375 C 6.242188 -5.425781 6.15625 -5.453125 6.03125 -5.453125 L 5.8125 -5.453125 L 4.59375 -1.140625 C 4.570312 -1.054688 4.5625 -0.984375 4.5625 -0.921875 C 4.5625 -0.847656 4.570312 -0.785156 4.59375 -0.734375 C 4.613281 -0.679688 4.648438 -0.625 4.703125 -0.5625 C 4.753906 -0.476562 4.78125 -0.40625 4.78125 -0.34375 C 4.78125 -0.332031 4.773438 -0.300781 4.765625 -0.25 C 4.734375 -0.164062 4.671875 -0.101562 4.578125 -0.0625 C 4.484375 -0.03125 4.347656 -0.015625 4.171875 -0.015625 L 1.921875 -0.015625 C 1.785156 -0.015625 1.675781 -0.0351562 1.59375 -0.078125 C 1.519531 -0.117188 1.484375 -0.179688 1.484375 -0.265625 C 1.484375 -0.304688 1.492188 -0.347656 1.515625 -0.390625 C 1.546875 -0.441406 1.578125 -0.484375 1.609375 -0.515625 C 1.648438 -0.546875 1.703125 -0.582031 1.765625 -0.625 C 1.867188 -0.6875 1.953125 -0.75 2.015625 -0.8125 C 2.078125 -0.882812 2.128906 -0.992188 2.171875 -1.140625 L 3.390625 -5.453125 L 3.171875 -5.453125 C 3.023438 -5.453125 2.90625 -5.425781 2.8125 -5.375 C 2.726562 -5.332031 2.632812 -5.25 2.53125 -5.125 L 2.21875 -4.734375 C 2.070312 -4.554688 1.925781 -4.425781 1.78125 -4.34375 C 1.644531 -4.257812 1.5 -4.21875 1.34375 -4.21875 C 1.1875 -4.21875 1.066406 -4.253906 0.984375 -4.328125 C 0.898438 -4.410156 0.859375 -4.519531 0.859375 -4.65625 C 0.859375 -4.71875 0.867188 -4.785156 0.890625 -4.859375 L 1.140625 -5.734375 C 1.191406 -5.910156 1.25 -6.046875 1.3125 -6.140625 C 1.382812 -6.234375 1.476562 -6.300781 1.59375 -6.34375 C 1.707031 -6.382812 1.875 -6.40625 2.09375 -6.40625 Z M 7.703125 -6.40625 "/></g></g></g><g fill="#617cb9" fill-opacity="1"><g transform="translate(27.650329, 16.065425)"><g><path d="M 3.59375 -6.46875 C 3.957031 -6.46875 4.289062 -6.421875 4.59375 -6.328125 C 4.894531 -6.242188 5.207031 -6.109375 5.53125 -5.921875 L 5.75 -6.109375 C 5.90625 -6.234375 6.03125 -6.316406 6.125 -6.359375 C 6.226562 -6.398438 6.34375 -6.421875 6.46875 -6.421875 C 6.625 -6.421875 6.742188 -6.390625 6.828125 -6.328125 C 6.921875 -6.265625 6.96875 -6.164062 6.96875 -6.03125 C 6.96875 -5.976562 6.957031 -5.925781 6.9375 -5.875 L 6.53125 -4.546875 C 6.488281 -4.390625 6.429688 -4.28125 6.359375 -4.21875 C 6.296875 -4.15625 6.195312 -4.125 6.0625 -4.125 C 5.925781 -4.125 5.800781 -4.164062 5.6875 -4.25 C 5.582031 -4.332031 5.421875 -4.507812 5.203125 -4.78125 C 4.972656 -5.039062 4.765625 -5.222656 4.578125 -5.328125 C 4.398438 -5.429688 4.210938 -5.484375 4.015625 -5.484375 C 3.878906 -5.484375 3.757812 -5.4375 3.65625 -5.34375 C 3.5625 -5.25 3.515625 -5.132812 3.515625 -5 C 3.515625 -4.851562 3.59375 -4.710938 3.75 -4.578125 C 3.90625 -4.441406 4.144531 -4.273438 4.46875 -4.078125 C 4.800781 -3.878906 5.078125 -3.695312 5.296875 -3.53125 C 5.515625 -3.375 5.703125 -3.175781 5.859375 -2.9375 C 6.015625 -2.707031 6.09375 -2.4375 6.09375 -2.125 C 6.09375 -1.925781 6.0625 -1.726562 6 -1.53125 C 5.84375 -1.019531 5.539062 -0.628906 5.09375 -0.359375 C 4.65625 -0.0976562 4.140625 0.03125 3.546875 0.03125 C 3.109375 0.03125 2.738281 -0.015625 2.4375 -0.109375 C 2.132812 -0.210938 1.828125 -0.390625 1.515625 -0.640625 L 1.171875 -0.34375 C 1.003906 -0.207031 0.867188 -0.113281 0.765625 -0.0625 C 0.660156 -0.0195312 0.546875 0 0.421875 0 C 0.273438 0 0.15625 -0.0351562 0.0625 -0.109375 C -0.0195312 -0.179688 -0.0625 -0.273438 -0.0625 -0.390625 C -0.0625 -0.453125 -0.046875 -0.519531 -0.015625 -0.59375 L 0.453125 -2.03125 C 0.503906 -2.195312 0.570312 -2.316406 0.65625 -2.390625 C 0.75 -2.460938 0.867188 -2.5 1.015625 -2.5 C 1.160156 -2.5 1.289062 -2.445312 1.40625 -2.34375 C 1.53125 -2.238281 1.6875 -2.050781 1.875 -1.78125 C 2.082031 -1.488281 2.273438 -1.28125 2.453125 -1.15625 C 2.628906 -1.039062 2.835938 -0.984375 3.078125 -0.984375 C 3.253906 -0.984375 3.390625 -1.007812 3.484375 -1.0625 C 3.578125 -1.125 3.640625 -1.21875 3.671875 -1.34375 C 3.691406 -1.375 3.703125 -1.421875 3.703125 -1.484375 C 3.703125 -1.640625 3.625 -1.78125 3.46875 -1.90625 C 3.320312 -2.03125 3.097656 -2.1875 2.796875 -2.375 C 2.460938 -2.570312 2.191406 -2.75 1.984375 -2.90625 C 1.785156 -3.0625 1.609375 -3.253906 1.453125 -3.484375 C 1.304688 -3.722656 1.234375 -4.003906 1.234375 -4.328125 C 1.234375 -4.554688 1.269531 -4.78125 1.34375 -5 C 1.476562 -5.4375 1.753906 -5.789062 2.171875 -6.0625 C 2.585938 -6.332031 3.0625 -6.46875 3.59375 -6.46875 Z M 3.59375 -6.46875 "/></g></g></g><g clip-path="url(#f557001a2c)"><path fill="#617cb9" d="M 23.40625 25.515625 C 23.210938 25.511719 23.042969 25.652344 23.007812 25.847656 L 22.785156 27.0625 C 22.59375 27.125 22.410156 27.199219 22.230469 27.289062 L 21.230469 26.566406 C 21.070312 26.453125 20.847656 26.46875 20.710938 26.609375 L 19.839844 27.460938 C 19.703125 27.601562 19.679688 27.820312 19.792969 27.984375 L 20.496094 28.996094 C 20.402344 29.175781 20.324219 29.359375 20.261719 29.550781 L 19.046875 29.746094 C 18.851562 29.777344 18.707031 29.945312 18.707031 30.144531 L 18.699219 31.363281 C 18.695312 31.558594 18.835938 31.730469 19.03125 31.765625 L 20.25 31.988281 C 20.3125 32.175781 20.386719 32.359375 20.476562 32.539062 L 19.75 33.539062 C 19.636719 33.699219 19.652344 33.921875 19.789062 34.0625 L 20.648438 34.929688 C 20.785156 35.070312 21.003906 35.089844 21.167969 34.976562 L 22.195312 34.269531 C 22.371094 34.359375 22.554688 34.433594 22.742188 34.496094 L 22.949219 35.726562 C 22.984375 35.921875 23.152344 36.066406 23.347656 36.066406 L 24.566406 36.074219 C 24.765625 36.074219 24.9375 35.929688 24.96875 35.734375 L 25.175781 34.507812 C 25.363281 34.445312 25.542969 34.371094 25.71875 34.285156 L 26.738281 35.007812 C 26.902344 35.125 27.121094 35.105469 27.257812 34.964844 L 28.128906 34.109375 C 28.269531 33.972656 28.289062 33.75 28.171875 33.585938 L 27.449219 32.570312 C 27.539062 32.394531 27.613281 32.214844 27.675781 32.03125 L 28.914062 31.820312 C 29.105469 31.789062 29.25 31.621094 29.25 31.421875 L 29.257812 30.207031 C 29.257812 30.007812 29.117188 29.835938 28.917969 29.804688 L 27.695312 29.597656 C 27.632812 29.410156 27.558594 29.226562 27.472656 29.046875 L 28.191406 28.03125 C 28.308594 27.871094 28.289062 27.652344 28.152344 27.511719 L 27.292969 26.644531 C 27.15625 26.503906 26.933594 26.484375 26.769531 26.597656 L 25.765625 27.3125 C 25.585938 27.222656 25.40625 27.148438 25.222656 27.085938 L 25.023438 25.863281 C 24.992188 25.667969 24.824219 25.523438 24.625 25.519531 Z M 23.746094 26.328125 L 24.277344 26.332031 L 24.453125 27.429688 C 24.480469 27.589844 24.597656 27.71875 24.753906 27.757812 C 25.050781 27.832031 25.339844 27.957031 25.609375 28.117188 C 25.746094 28.203125 25.921875 28.199219 26.054688 28.105469 L 26.960938 27.460938 L 27.335938 27.839844 L 26.683594 28.753906 C 26.589844 28.886719 26.582031 29.058594 26.664062 29.195312 C 26.824219 29.46875 26.941406 29.757812 27.011719 30.054688 C 27.050781 30.210938 27.179688 30.332031 27.339844 30.359375 L 28.441406 30.546875 L 28.441406 31.078125 L 27.328125 31.265625 C 27.167969 31.292969 27.039062 31.410156 27 31.566406 C 26.925781 31.863281 26.804688 32.148438 26.644531 32.414062 C 26.558594 32.554688 26.566406 32.730469 26.660156 32.859375 L 27.308594 33.777344 L 26.933594 34.148438 L 26.011719 33.496094 C 25.878906 33.402344 25.707031 33.394531 25.570312 33.476562 C 25.300781 33.636719 25.011719 33.753906 24.714844 33.824219 C 24.558594 33.863281 24.4375 33.992188 24.410156 34.152344 L 24.226562 35.257812 L 23.695312 35.253906 L 23.507812 34.144531 C 23.480469 33.984375 23.363281 33.855469 23.203125 33.820312 C 22.910156 33.746094 22.621094 33.625 22.351562 33.464844 C 22.214844 33.382812 22.042969 33.386719 21.910156 33.476562 L 20.984375 34.117188 L 20.609375 33.738281 L 21.261719 32.835938 C 21.359375 32.703125 21.367188 32.527344 21.28125 32.386719 C 21.121094 32.117188 21.003906 31.828125 20.929688 31.53125 C 20.894531 31.375 20.769531 31.253906 20.609375 31.226562 L 19.511719 31.027344 L 19.515625 30.492188 L 20.609375 30.316406 C 20.769531 30.292969 20.898438 30.171875 20.9375 30.015625 C 21.015625 29.714844 21.132812 29.429688 21.300781 29.15625 C 21.382812 29.023438 21.378906 28.847656 21.285156 28.714844 L 20.65625 27.800781 L 21.035156 27.425781 L 21.933594 28.074219 C 22.0625 28.167969 22.238281 28.179688 22.375 28.097656 C 22.648438 27.933594 22.941406 27.816406 23.238281 27.746094 C 23.398438 27.707031 23.515625 27.582031 23.542969 27.425781 Z M 23.972656 28.777344 C 23.449219 28.773438 22.925781 28.96875 22.527344 29.363281 C 21.734375 30.152344 21.726562 31.449219 22.511719 32.246094 C 23.300781 33.042969 24.597656 33.046875 25.394531 32.261719 C 26.191406 31.472656 26.195312 30.175781 25.410156 29.378906 C 25.015625 28.980469 24.496094 28.78125 23.972656 28.777344 Z M 23.96875 29.585938 C 24.28125 29.585938 24.59375 29.707031 24.832031 29.953125 C 25.3125 30.433594 25.308594 31.203125 24.824219 31.683594 C 24.339844 32.160156 23.570312 32.15625 23.089844 31.675781 C 22.613281 31.1875 22.617188 30.417969 23.101562 29.941406 C 23.34375 29.703125 23.65625 29.582031 23.96875 29.585938 Z M 19.679688 36.074219 C 18.621094 36.074219 18.132812 36.328125 17.605469 36.53125 C 16.597656 36.925781 14.867188 37.742188 14.867188 37.742188 C 14.664062 37.835938 14.578125 38.078125 14.671875 38.28125 C 14.769531 38.484375 15.011719 38.570312 15.214844 38.476562 C 15.214844 38.476562 16.953125 37.65625 17.898438 37.289062 C 18.484375 37.0625 18.738281 36.886719 19.679688 36.886719 C 21.765625 36.886719 21.679688 37.789062 22.558594 38.308594 C 22.570312 38.316406 22.585938 38.324219 22.601562 38.328125 C 23.691406 38.816406 24.859375 38.917969 25.804688 38.917969 C 26.222656 38.917969 26.484375 39.011719 26.628906 39.121094 C 26.769531 39.230469 26.820312 39.34375 26.820312 39.527344 C 26.820312 39.738281 26.765625 39.839844 26.625 39.945312 C 26.484375 40.046875 26.214844 40.132812 25.804688 40.132812 L 23.671875 40.132812 C 22.777344 40.132812 21.238281 39.742188 21.238281 39.742188 C 21.097656 39.703125 20.949219 39.746094 20.84375 39.847656 C 20.742188 39.949219 20.703125 40.101562 20.738281 40.242188 C 20.777344 40.382812 20.890625 40.492188 21.03125 40.527344 C 21.03125 40.527344 22.558594 40.945312 23.671875 40.945312 L 25.804688 40.945312 C 26.21875 40.945312 26.578125 40.878906 26.878906 40.730469 C 26.921875 40.71875 26.957031 40.699219 26.992188 40.675781 L 30.84375 38.148438 C 31.421875 37.816406 31.816406 37.722656 32.050781 37.726562 C 32.28125 37.730469 32.359375 37.800781 32.429688 37.886719 C 32.53125 38.023438 32.539062 38.074219 32.472656 38.226562 C 32.40625 38.382812 32.207031 38.621094 31.847656 38.867188 C 31.40625 39.175781 26.472656 42.390625 25.90625 42.714844 C 25.476562 42.957031 25.132812 43.214844 24.746094 43.324219 C 24.355469 43.433594 23.898438 43.433594 23.140625 43.070312 C 22.632812 42.828125 20.480469 41.722656 19.78125 41.371094 C 19.394531 41.171875 19.0625 41.0625 18.722656 41.082031 C 18.382812 41.101562 18.097656 41.246094 17.800781 41.433594 C 17.796875 41.433594 17.796875 41.433594 17.796875 41.433594 L 16.789062 42.078125 C 16.664062 42.152344 16.589844 42.292969 16.59375 42.441406 C 16.597656 42.589844 16.683594 42.722656 16.816406 42.789062 C 16.949219 42.855469 17.105469 42.847656 17.230469 42.761719 L 18.230469 42.121094 C 18.488281 41.960938 18.632812 41.898438 18.769531 41.890625 C 18.902344 41.882812 19.082031 41.925781 19.414062 42.09375 C 20.105469 42.445312 22.226562 43.535156 22.789062 43.800781 C 23.675781 44.226562 24.390625 44.265625 24.960938 44.105469 C 25.535156 43.945312 25.941406 43.625 26.304688 43.421875 C 27.089844 42.972656 31.746094 39.929688 32.3125 39.535156 C 32.742188 39.234375 33.058594 38.921875 33.21875 38.546875 C 33.378906 38.175781 33.328125 37.71875 33.070312 37.390625 C 33.070312 37.390625 33.070312 37.390625 33.070312 37.386719 C 32.871094 37.132812 32.511719 36.921875 32.0625 36.914062 C 31.808594 36.90625 31.523438 36.964844 31.207031 37.082031 C 31.148438 37.003906 31.0625 36.902344 30.9375 36.8125 C 30.703125 36.636719 30.328125 36.480469 29.816406 36.480469 C 29.554688 36.480469 29.339844 36.539062 29.167969 36.609375 C 28.925781 36.378906 28.492188 36.082031 27.859375 36.082031 C 27.351562 36.082031 26.871094 36.253906 26.539062 36.449219 C 26.476562 36.484375 26.328125 36.578125 26.074219 36.738281 C 25.820312 36.898438 25.488281 37.101562 25.160156 37.304688 C 24.640625 37.632812 24.316406 37.835938 24.128906 37.953125 C 23.730469 37.871094 23.332031 37.761719 22.957031 37.59375 C 22.636719 37.386719 22.019531 36.074219 19.679688 36.074219 Z M 27.859375 36.894531 C 28.117188 36.894531 28.300781 36.957031 28.433594 37.035156 L 26.554688 38.199219 C 26.328125 38.136719 26.078125 38.105469 25.804688 38.105469 C 25.6875 38.105469 25.558594 38.097656 25.4375 38.089844 C 25.511719 38.042969 25.511719 38.042969 25.589844 37.996094 C 25.917969 37.792969 26.246094 37.585938 26.503906 37.425781 C 26.757812 37.269531 26.964844 37.140625 26.949219 37.148438 C 27.140625 37.035156 27.558594 36.894531 27.859375 36.894531 Z M 29.816406 37.292969 C 30.144531 37.292969 30.324219 37.375 30.429688 37.449219 C 30.425781 37.453125 30.417969 37.457031 30.414062 37.460938 L 27.605469 39.300781 C 27.570312 39.074219 27.476562 38.859375 27.328125 38.675781 L 29.289062 37.460938 L 29.289062 37.457031 C 29.304688 37.449219 29.644531 37.292969 29.816406 37.292969 Z M 29.816406 37.292969 " fill-opacity="1" fill-rule="nonzero"/></g></svg>